<mxfile host="Electron" modified="2023-12-05T14:22:16.635Z" agent="Mozilla/5.0 (Windows NT 10.0; Win64; x64) AppleWebKit/537.36 (KHTML, like Gecko) draw.io/22.1.2 Chrome/114.0.5735.289 Electron/25.9.4 Safari/537.36" etag="MXgb59kDokIUIo7DR-W3" version="22.1.2" type="device">
  <diagram name="Página-1" id="bpEDX6xqWVn-J746UU-V">
    <mxGraphModel dx="1895" dy="2127" grid="1" gridSize="10" guides="1" tooltips="1" connect="1" arrows="1" fold="1" page="1" pageScale="1" pageWidth="827" pageHeight="1169" math="0" shadow="0">
      <root>
        <mxCell id="0" />
        <mxCell id="1" parent="0" />
        <mxCell id="cJj3Txq9HCWcAZoRYjCn-1" value="&lt;div&gt;&lt;b&gt;abi&lt;/b&gt;: http://w3id.org/def/SolidityABI/&lt;/div&gt;&lt;div&gt;&lt;b&gt;sol:&lt;/b&gt; http://w3id.org/def/SolidityOntology/&lt;br&gt;&lt;/div&gt;" style="shape=note;whiteSpace=wrap;html=1;backgroundOutline=1;darkOpacity=0.05;size=20;" parent="1" vertex="1">
          <mxGeometry x="-348" y="-360" width="290" height="60" as="geometry" />
        </mxCell>
        <mxCell id="cJj3Txq9HCWcAZoRYjCn-2" value="&lt;div&gt;&lt;b&gt;dc:creator:&lt;/b&gt;&amp;nbsp;Juan Cano-Benito&lt;br&gt;&lt;div style=&quot;border-color: var(--border-color);&quot;&gt;&lt;b style=&quot;border-color: var(--border-color);&quot;&gt;dc:creator:&lt;/b&gt;&amp;nbsp;Raúl García Castro&lt;/div&gt;&lt;/div&gt;&lt;div&gt;&lt;b&gt;owl:versionInfo:&lt;/b&gt; 0.0.1&lt;/div&gt;&lt;div&gt;&lt;b&gt;dc:title:&lt;/b&gt;&amp;nbsp;Solidity ABI Ontology&lt;/div&gt;" style="shape=document;whiteSpace=wrap;html=1;boundedLbl=1;labelBackgroundColor=#ffffff;strokeColor=#000000;fontSize=12;fontColor=#000000;size=0.23333333333333334;" parent="1" vertex="1">
          <mxGeometry x="72" y="-360" width="253" height="90" as="geometry" />
        </mxCell>
        <mxCell id="cJj3Txq9HCWcAZoRYjCn-3" value="abi:address: string&lt;br&gt;abi:name: string" style="rounded=0;whiteSpace=wrap;html=1;snapToPoint=1;points=[[0.1,0],[0.2,0],[0.3,0],[0.4,0],[0.5,0],[0.6,0],[0.7,0],[0.8,0],[0.9,0],[0,0.1],[0,0.3],[0,0.5],[0,0.7],[0,0.9],[0.1,1],[0.2,1],[0.3,1],[0.4,1],[0.5,1],[0.6,1],[0.7,1],[0.8,1],[0.9,1],[1,0.1],[1,0.3],[1,0.5],[1,0.7],[1,0.9]];" parent="1" vertex="1">
          <mxGeometry x="-258" y="-612" width="177" height="48" as="geometry" />
        </mxCell>
        <mxCell id="cJj3Txq9HCWcAZoRYjCn-4" value="abi:ApplicationBinaryInterface" style="rounded=0;whiteSpace=wrap;html=1;snapToPoint=1;points=[[0.1,0],[0.2,0],[0.3,0],[0.4,0],[0.5,0],[0.6,0],[0.7,0],[0.8,0],[0.9,0],[0,0.1],[0,0.3],[0,0.5],[0,0.7],[0,0.9],[0.1,1],[0.2,1],[0.3,1],[0.4,1],[0.5,1],[0.6,1],[0.7,1],[0.8,1],[0.9,1],[1,0.1],[1,0.3],[1,0.5],[1,0.7],[1,0.9]];fillColor=#ffe6cc;strokeColor=#d79b00;" parent="1" vertex="1">
          <mxGeometry x="-258" y="-642" width="177" height="30" as="geometry" />
        </mxCell>
        <mxCell id="cJj3Txq9HCWcAZoRYjCn-5" value="abi:name: string&lt;br&gt;abi:isConstant: boolean" style="rounded=0;whiteSpace=wrap;html=1;snapToPoint=1;points=[[0.1,0],[0.2,0],[0.3,0],[0.4,0],[0.5,0],[0.6,0],[0.7,0],[0.8,0],[0.9,0],[0,0.1],[0,0.3],[0,0.5],[0,0.7],[0,0.9],[0.1,1],[0.2,1],[0.3,1],[0.4,1],[0.5,1],[0.6,1],[0.7,1],[0.8,1],[0.9,1],[1,0.1],[1,0.3],[1,0.5],[1,0.7],[1,0.9]];" parent="1" vertex="1">
          <mxGeometry x="33" y="-614" width="136" height="50" as="geometry" />
        </mxCell>
        <mxCell id="cJj3Txq9HCWcAZoRYjCn-6" value="abi:Method" style="rounded=0;whiteSpace=wrap;html=1;snapToPoint=1;points=[[0.1,0],[0.2,0],[0.3,0],[0.4,0],[0.5,0],[0.6,0],[0.7,0],[0.8,0],[0.9,0],[0,0.1],[0,0.3],[0,0.5],[0,0.7],[0,0.9],[0.1,1],[0.2,1],[0.3,1],[0.4,1],[0.5,1],[0.6,1],[0.7,1],[0.8,1],[0.9,1],[1,0.1],[1,0.3],[1,0.5],[1,0.7],[1,0.9]];fillColor=#ffe6cc;strokeColor=#d79b00;" parent="1" vertex="1">
          <mxGeometry x="33" y="-644" width="136" height="30" as="geometry" />
        </mxCell>
        <mxCell id="cJj3Txq9HCWcAZoRYjCn-8" value="abi:OutputParameter" style="rounded=0;whiteSpace=wrap;html=1;snapToPoint=1;points=[[0.1,0],[0.2,0],[0.3,0],[0.4,0],[0.5,0],[0.6,0],[0.7,0],[0.8,0],[0.9,0],[0,0.1],[0,0.3],[0,0.5],[0,0.7],[0,0.9],[0.1,1],[0.2,1],[0.3,1],[0.4,1],[0.5,1],[0.6,1],[0.7,1],[0.8,1],[0.9,1],[1,0.1],[1,0.3],[1,0.5],[1,0.7],[1,0.9]];fillColor=#ffe6cc;strokeColor=#d79b00;" parent="1" vertex="1">
          <mxGeometry x="202" y="-727" width="140" height="30" as="geometry" />
        </mxCell>
        <mxCell id="cJj3Txq9HCWcAZoRYjCn-9" value="abi:name: string&lt;br&gt;abi:type: string&lt;br&gt;abi:internalType: string" style="rounded=0;whiteSpace=wrap;html=1;snapToPoint=1;points=[[0.1,0],[0.2,0],[0.3,0],[0.4,0],[0.5,0],[0.6,0],[0.7,0],[0.8,0],[0.9,0],[0,0.1],[0,0.3],[0,0.5],[0,0.7],[0,0.9],[0.1,1],[0.2,1],[0.3,1],[0.4,1],[0.5,1],[0.6,1],[0.7,1],[0.8,1],[0.9,1],[1,0.1],[1,0.3],[1,0.5],[1,0.7],[1,0.9]];" parent="1" vertex="1">
          <mxGeometry x="-158" y="-810" width="202" height="70" as="geometry" />
        </mxCell>
        <mxCell id="cJj3Txq9HCWcAZoRYjCn-10" value="abi:Parameter" style="rounded=0;whiteSpace=wrap;html=1;snapToPoint=1;points=[[0.1,0],[0.2,0],[0.3,0],[0.4,0],[0.5,0],[0.6,0],[0.7,0],[0.8,0],[0.9,0],[0,0.1],[0,0.3],[0,0.5],[0,0.7],[0,0.9],[0.1,1],[0.2,1],[0.3,1],[0.4,1],[0.5,1],[0.6,1],[0.7,1],[0.8,1],[0.9,1],[1,0.1],[1,0.3],[1,0.5],[1,0.7],[1,0.9]];fillColor=#ffe6cc;strokeColor=#d79b00;" parent="1" vertex="1">
          <mxGeometry x="-158" y="-840" width="202" height="30" as="geometry" />
        </mxCell>
        <mxCell id="cJj3Txq9HCWcAZoRYjCn-11" value="" style="endArrow=classic;html=1;exitX=1;exitY=0.3;exitDx=0;exitDy=0;entryX=0;entryY=0.3;entryDx=0;entryDy=0;endSize=8;arcSize=0;rounded=0;" parent="1" source="cJj3Txq9HCWcAZoRYjCn-3" target="cJj3Txq9HCWcAZoRYjCn-5" edge="1">
          <mxGeometry width="50" height="50" relative="1" as="geometry">
            <mxPoint x="-111" y="-504" as="sourcePoint" />
            <mxPoint x="86" y="-504" as="targetPoint" />
          </mxGeometry>
        </mxCell>
        <mxCell id="cJj3Txq9HCWcAZoRYjCn-12" value="&lt;div&gt;abi:hasMethod&lt;br&gt;&lt;/div&gt;" style="text;html=1;align=center;verticalAlign=middle;resizable=0;points=[];labelBackgroundColor=#ffffff;" parent="cJj3Txq9HCWcAZoRYjCn-11" vertex="1" connectable="0">
          <mxGeometry x="-0.1269" relative="1" as="geometry">
            <mxPoint x="-1" as="offset" />
          </mxGeometry>
        </mxCell>
        <mxCell id="cJj3Txq9HCWcAZoRYjCn-13" value="" style="endArrow=block;html=1;fontColor=#000099;endFill=0;entryX=0.2;entryY=1;entryDx=0;entryDy=0;endSize=8;arcSize=0;rounded=0;exitX=0;exitY=0.5;exitDx=0;exitDy=0;" parent="1" source="cJj3Txq9HCWcAZoRYjCn-16" target="cJj3Txq9HCWcAZoRYjCn-5" edge="1">
          <mxGeometry width="50" height="50" relative="1" as="geometry">
            <mxPoint x="101" y="-784" as="sourcePoint" />
            <mxPoint x="79" y="-784" as="targetPoint" />
            <Array as="points">
              <mxPoint x="60" y="-489" />
            </Array>
          </mxGeometry>
        </mxCell>
        <mxCell id="cJj3Txq9HCWcAZoRYjCn-16" value="abi:Function" style="rounded=0;whiteSpace=wrap;html=1;snapToPoint=1;points=[[0.1,0],[0.2,0],[0.3,0],[0.4,0],[0.5,0],[0.6,0],[0.7,0],[0.8,0],[0.9,0],[0,0.1],[0,0.3],[0,0.5],[0,0.7],[0,0.9],[0.1,1],[0.2,1],[0.3,1],[0.4,1],[0.5,1],[0.6,1],[0.7,1],[0.8,1],[0.9,1],[1,0.1],[1,0.3],[1,0.5],[1,0.7],[1,0.9]];fillColor=#ffe6cc;strokeColor=#d79b00;" parent="1" vertex="1">
          <mxGeometry x="102" y="-504" width="136" height="30" as="geometry" />
        </mxCell>
        <mxCell id="cJj3Txq9HCWcAZoRYjCn-18" value="abi:Constructor" style="rounded=0;whiteSpace=wrap;html=1;snapToPoint=1;points=[[0.1,0],[0.2,0],[0.3,0],[0.4,0],[0.5,0],[0.6,0],[0.7,0],[0.8,0],[0.9,0],[0,0.1],[0,0.3],[0,0.5],[0,0.7],[0,0.9],[0.1,1],[0.2,1],[0.3,1],[0.4,1],[0.5,1],[0.6,1],[0.7,1],[0.8,1],[0.9,1],[1,0.1],[1,0.3],[1,0.5],[1,0.7],[1,0.9]];fillColor=#ffe6cc;strokeColor=#d79b00;" parent="1" vertex="1">
          <mxGeometry x="102" y="-464" width="136" height="30" as="geometry" />
        </mxCell>
        <mxCell id="cJj3Txq9HCWcAZoRYjCn-19" value="abi:Fallback" style="rounded=0;whiteSpace=wrap;html=1;snapToPoint=1;points=[[0.1,0],[0.2,0],[0.3,0],[0.4,0],[0.5,0],[0.6,0],[0.7,0],[0.8,0],[0.9,0],[0,0.1],[0,0.3],[0,0.5],[0,0.7],[0,0.9],[0.1,1],[0.2,1],[0.3,1],[0.4,1],[0.5,1],[0.6,1],[0.7,1],[0.8,1],[0.9,1],[1,0.1],[1,0.3],[1,0.5],[1,0.7],[1,0.9]];fillColor=#ffe6cc;strokeColor=#d79b00;" parent="1" vertex="1">
          <mxGeometry x="102" y="-424" width="136" height="30" as="geometry" />
        </mxCell>
        <mxCell id="cJj3Txq9HCWcAZoRYjCn-20" value="" style="endArrow=block;html=1;fontColor=#000099;endFill=0;endSize=8;arcSize=0;rounded=0;exitX=0;exitY=0.5;exitDx=0;exitDy=0;entryX=0.2;entryY=1;entryDx=0;entryDy=0;" parent="1" source="cJj3Txq9HCWcAZoRYjCn-18" target="cJj3Txq9HCWcAZoRYjCn-5" edge="1">
          <mxGeometry width="50" height="50" relative="1" as="geometry">
            <mxPoint x="149" y="-779" as="sourcePoint" />
            <mxPoint x="69" y="-694" as="targetPoint" />
            <Array as="points">
              <mxPoint x="60" y="-449" />
            </Array>
          </mxGeometry>
        </mxCell>
        <mxCell id="cJj3Txq9HCWcAZoRYjCn-21" value="" style="endArrow=block;html=1;fontColor=#000099;endFill=0;endSize=8;arcSize=0;rounded=0;exitX=0;exitY=0.5;exitDx=0;exitDy=0;entryX=0.2;entryY=1;entryDx=0;entryDy=0;" parent="1" source="cJj3Txq9HCWcAZoRYjCn-19" target="cJj3Txq9HCWcAZoRYjCn-5" edge="1">
          <mxGeometry width="50" height="50" relative="1" as="geometry">
            <mxPoint x="149" y="-739" as="sourcePoint" />
            <mxPoint x="111" y="-634" as="targetPoint" />
            <Array as="points">
              <mxPoint x="60" y="-409" />
              <mxPoint x="60" y="-424" />
            </Array>
          </mxGeometry>
        </mxCell>
        <mxCell id="cJj3Txq9HCWcAZoRYjCn-23" value="abi:StateMutability" style="rounded=0;whiteSpace=wrap;html=1;snapToPoint=1;points=[[0.1,0],[0.2,0],[0.3,0],[0.4,0],[0.5,0],[0.6,0],[0.7,0],[0.8,0],[0.9,0],[0,0.1],[0,0.3],[0,0.5],[0,0.7],[0,0.9],[0.1,1],[0.2,1],[0.3,1],[0.4,1],[0.5,1],[0.6,1],[0.7,1],[0.8,1],[0.9,1],[1,0.1],[1,0.3],[1,0.5],[1,0.7],[1,0.9]];fillColor=#ffe6cc;strokeColor=#d79b00;" parent="1" vertex="1">
          <mxGeometry x="312" y="-587" width="133" height="30" as="geometry" />
        </mxCell>
        <mxCell id="cJj3Txq9HCWcAZoRYjCn-24" value="" style="endArrow=classic;html=1;exitX=1;exitY=0.5;exitDx=0;exitDy=0;entryX=0.5;entryY=1;entryDx=0;entryDy=0;endSize=8;arcSize=0;rounded=0;" parent="1" source="cJj3Txq9HCWcAZoRYjCn-6" target="cJj3Txq9HCWcAZoRYjCn-8" edge="1">
          <mxGeometry width="50" height="50" relative="1" as="geometry">
            <mxPoint x="169" y="-570" as="sourcePoint" />
            <mxPoint x="297" y="-570" as="targetPoint" />
            <Array as="points">
              <mxPoint x="272" y="-629" />
            </Array>
          </mxGeometry>
        </mxCell>
        <mxCell id="cJj3Txq9HCWcAZoRYjCn-25" value="&lt;div&gt;abi:hasMethodOutputParameter&lt;br&gt;&lt;/div&gt;" style="text;html=1;align=center;verticalAlign=middle;resizable=0;points=[];labelBackgroundColor=#ffffff;" parent="cJj3Txq9HCWcAZoRYjCn-24" vertex="1" connectable="0">
          <mxGeometry x="-0.1269" relative="1" as="geometry">
            <mxPoint x="37" y="-11" as="offset" />
          </mxGeometry>
        </mxCell>
        <mxCell id="cJj3Txq9HCWcAZoRYjCn-26" value="" style="endArrow=classic;html=1;exitX=0.682;exitY=-0.008;exitDx=0;exitDy=0;entryX=0.5;entryY=1;entryDx=0;entryDy=0;endSize=8;arcSize=0;rounded=0;exitPerimeter=0;" parent="1" source="cJj3Txq9HCWcAZoRYjCn-6" target="rs8FluNcS8zjpksZ3zof-5" edge="1">
          <mxGeometry width="50" height="50" relative="1" as="geometry">
            <mxPoint x="179" y="-567" as="sourcePoint" />
            <mxPoint x="329" y="-609" as="targetPoint" />
            <Array as="points">
              <mxPoint x="126" y="-690" />
            </Array>
          </mxGeometry>
        </mxCell>
        <mxCell id="cJj3Txq9HCWcAZoRYjCn-27" value="&lt;div&gt;abi:hasMethodInputParameter&lt;br&gt;&lt;/div&gt;" style="text;html=1;align=center;verticalAlign=middle;resizable=0;points=[];labelBackgroundColor=#ffffff;" parent="cJj3Txq9HCWcAZoRYjCn-26" vertex="1" connectable="0">
          <mxGeometry x="-0.1269" relative="1" as="geometry">
            <mxPoint x="-9" y="1" as="offset" />
          </mxGeometry>
        </mxCell>
        <mxCell id="cJj3Txq9HCWcAZoRYjCn-28" value="" style="endArrow=classic;html=1;exitX=1;exitY=0.7;exitDx=0;exitDy=0;entryX=0;entryY=0.3;entryDx=0;entryDy=0;endSize=8;arcSize=0;rounded=0;" parent="1" source="cJj3Txq9HCWcAZoRYjCn-5" target="cJj3Txq9HCWcAZoRYjCn-23" edge="1">
          <mxGeometry width="50" height="50" relative="1" as="geometry">
            <mxPoint x="189" y="-582" as="sourcePoint" />
            <mxPoint x="339" y="-624" as="targetPoint" />
            <Array as="points">
              <mxPoint x="212" y="-578" />
            </Array>
          </mxGeometry>
        </mxCell>
        <mxCell id="cJj3Txq9HCWcAZoRYjCn-29" value="&lt;div&gt;abi:hasStateMutability&lt;br&gt;&lt;/div&gt;" style="text;html=1;align=center;verticalAlign=middle;resizable=0;points=[];labelBackgroundColor=#ffffff;" parent="cJj3Txq9HCWcAZoRYjCn-28" vertex="1" connectable="0">
          <mxGeometry x="-0.1269" relative="1" as="geometry">
            <mxPoint x="2" as="offset" />
          </mxGeometry>
        </mxCell>
        <mxCell id="cJj3Txq9HCWcAZoRYjCn-38" value="" style="endArrow=classic;html=1;exitX=0.154;exitY=0.99;exitDx=0;exitDy=0;endSize=8;arcSize=0;rounded=0;entryX=0.9;entryY=0;entryDx=0;entryDy=0;exitPerimeter=0;" parent="1" source="cJj3Txq9HCWcAZoRYjCn-3" edge="1" target="cJj3Txq9HCWcAZoRYjCn-41">
          <mxGeometry width="50" height="50" relative="1" as="geometry">
            <mxPoint x="-241.29999999999995" y="-557" as="sourcePoint" />
            <mxPoint x="-294" y="-494" as="targetPoint" />
            <Array as="points" />
          </mxGeometry>
        </mxCell>
        <mxCell id="cJj3Txq9HCWcAZoRYjCn-39" value="&lt;div&gt;abi:hasEvent&lt;br&gt;&lt;/div&gt;" style="text;html=1;align=center;verticalAlign=middle;resizable=0;points=[];labelBackgroundColor=#ffffff;" parent="cJj3Txq9HCWcAZoRYjCn-38" vertex="1" connectable="0">
          <mxGeometry x="-0.1269" relative="1" as="geometry">
            <mxPoint as="offset" />
          </mxGeometry>
        </mxCell>
        <mxCell id="cJj3Txq9HCWcAZoRYjCn-40" value="abi:name: string&lt;br&gt;abi:isAnonymous: boolean" style="rounded=0;whiteSpace=wrap;html=1;snapToPoint=1;points=[[0.1,0],[0.2,0],[0.3,0],[0.4,0],[0.5,0],[0.6,0],[0.7,0],[0.8,0],[0.9,0],[0,0.1],[0,0.3],[0,0.5],[0,0.7],[0,0.9],[0.1,1],[0.2,1],[0.3,1],[0.4,1],[0.5,1],[0.6,1],[0.7,1],[0.8,1],[0.9,1],[1,0.1],[1,0.3],[1,0.5],[1,0.7],[1,0.9]];" parent="1" vertex="1">
          <mxGeometry x="-366" y="-464" width="150" height="60" as="geometry" />
        </mxCell>
        <mxCell id="cJj3Txq9HCWcAZoRYjCn-41" value="abi:Event" style="rounded=0;whiteSpace=wrap;html=1;snapToPoint=1;points=[[0.1,0],[0.2,0],[0.3,0],[0.4,0],[0.5,0],[0.6,0],[0.7,0],[0.8,0],[0.9,0],[0,0.1],[0,0.3],[0,0.5],[0,0.7],[0,0.9],[0.1,1],[0.2,1],[0.3,1],[0.4,1],[0.5,1],[0.6,1],[0.7,1],[0.8,1],[0.9,1],[1,0.1],[1,0.3],[1,0.5],[1,0.7],[1,0.9]];fillColor=#ffe6cc;strokeColor=#d79b00;" parent="1" vertex="1">
          <mxGeometry x="-366" y="-494" width="150" height="30" as="geometry" />
        </mxCell>
        <mxCell id="cJj3Txq9HCWcAZoRYjCn-42" value="abi:indexed:string" style="rounded=0;whiteSpace=wrap;html=1;snapToPoint=1;points=[[0.1,0],[0.2,0],[0.3,0],[0.4,0],[0.5,0],[0.6,0],[0.7,0],[0.8,0],[0.9,0],[0,0.1],[0,0.3],[0,0.5],[0,0.7],[0,0.9],[0.1,1],[0.2,1],[0.3,1],[0.4,1],[0.5,1],[0.6,1],[0.7,1],[0.8,1],[0.9,1],[1,0.1],[1,0.3],[1,0.5],[1,0.7],[1,0.9]];" parent="1" vertex="1">
          <mxGeometry x="-440" y="-588" width="160" height="38" as="geometry" />
        </mxCell>
        <mxCell id="cJj3Txq9HCWcAZoRYjCn-43" value="abi:InputEvent" style="rounded=0;whiteSpace=wrap;html=1;snapToPoint=1;points=[[0.1,0],[0.2,0],[0.3,0],[0.4,0],[0.5,0],[0.6,0],[0.7,0],[0.8,0],[0.9,0],[0,0.1],[0,0.3],[0,0.5],[0,0.7],[0,0.9],[0.1,1],[0.2,1],[0.3,1],[0.4,1],[0.5,1],[0.6,1],[0.7,1],[0.8,1],[0.9,1],[1,0.1],[1,0.3],[1,0.5],[1,0.7],[1,0.9]];fillColor=#ffe6cc;strokeColor=#d79b00;" parent="1" vertex="1">
          <mxGeometry x="-440" y="-618" width="160" height="30" as="geometry" />
        </mxCell>
        <mxCell id="cJj3Txq9HCWcAZoRYjCn-45" value="" style="endArrow=classic;html=1;exitX=0.1;exitY=0;exitDx=0;exitDy=0;entryX=0.558;entryY=1.057;entryDx=0;entryDy=0;endSize=8;arcSize=0;rounded=0;entryPerimeter=0;" parent="1" source="cJj3Txq9HCWcAZoRYjCn-41" target="cJj3Txq9HCWcAZoRYjCn-42" edge="1">
          <mxGeometry width="50" height="50" relative="1" as="geometry">
            <mxPoint x="-245" y="-299" as="sourcePoint" />
            <mxPoint x="-349.9999999999993" y="-534" as="targetPoint" />
            <Array as="points" />
          </mxGeometry>
        </mxCell>
        <mxCell id="cJj3Txq9HCWcAZoRYjCn-46" value="&lt;div&gt;abi:hasEventInput&lt;br&gt;&lt;/div&gt;" style="text;html=1;align=center;verticalAlign=middle;resizable=0;points=[];labelBackgroundColor=#ffffff;" parent="cJj3Txq9HCWcAZoRYjCn-45" vertex="1" connectable="0">
          <mxGeometry x="-0.1269" relative="1" as="geometry">
            <mxPoint x="7" as="offset" />
          </mxGeometry>
        </mxCell>
        <mxCell id="YEbua0Xe0tTHwc7vpoXJ-1" value="abi:Receive" style="rounded=0;whiteSpace=wrap;html=1;snapToPoint=1;points=[[0.1,0],[0.2,0],[0.3,0],[0.4,0],[0.5,0],[0.6,0],[0.7,0],[0.8,0],[0.9,0],[0,0.1],[0,0.3],[0,0.5],[0,0.7],[0,0.9],[0.1,1],[0.2,1],[0.3,1],[0.4,1],[0.5,1],[0.6,1],[0.7,1],[0.8,1],[0.9,1],[1,0.1],[1,0.3],[1,0.5],[1,0.7],[1,0.9]];fillColor=#ffe6cc;strokeColor=#d79b00;" parent="1" vertex="1">
          <mxGeometry x="102" y="-544" width="136" height="30" as="geometry" />
        </mxCell>
        <mxCell id="YEbua0Xe0tTHwc7vpoXJ-2" value="" style="endArrow=block;html=1;fontColor=#000099;endFill=0;entryX=0.2;entryY=1;entryDx=0;entryDy=0;endSize=8;arcSize=0;rounded=0;exitX=0;exitY=0.5;exitDx=0;exitDy=0;" parent="1" source="YEbua0Xe0tTHwc7vpoXJ-1" target="cJj3Txq9HCWcAZoRYjCn-5" edge="1">
          <mxGeometry width="50" height="50" relative="1" as="geometry">
            <mxPoint x="149" y="-779" as="sourcePoint" />
            <mxPoint x="111" y="-634" as="targetPoint" />
            <Array as="points">
              <mxPoint x="60" y="-529" />
            </Array>
          </mxGeometry>
        </mxCell>
        <mxCell id="YEbua0Xe0tTHwc7vpoXJ-3" value="" style="endArrow=classic;html=1;exitX=0.1;exitY=0;exitDx=0;exitDy=0;endSize=8;arcSize=0;rounded=0;entryX=0.6;entryY=1;entryDx=0;entryDy=0;" parent="1" source="cJj3Txq9HCWcAZoRYjCn-4" target="YEbua0Xe0tTHwc7vpoXJ-5" edge="1">
          <mxGeometry width="50" height="50" relative="1" as="geometry">
            <mxPoint x="-153" y="-563" as="sourcePoint" />
            <mxPoint x="-218" y="-680" as="targetPoint" />
            <Array as="points" />
          </mxGeometry>
        </mxCell>
        <mxCell id="YEbua0Xe0tTHwc7vpoXJ-4" value="&lt;div&gt;abi:hasError&lt;br&gt;&lt;/div&gt;" style="text;html=1;align=center;verticalAlign=middle;resizable=0;points=[];labelBackgroundColor=#ffffff;" parent="YEbua0Xe0tTHwc7vpoXJ-3" vertex="1" connectable="0">
          <mxGeometry x="-0.1269" relative="1" as="geometry">
            <mxPoint x="1" y="2" as="offset" />
          </mxGeometry>
        </mxCell>
        <mxCell id="YEbua0Xe0tTHwc7vpoXJ-5" value="abi:name: string" style="rounded=0;whiteSpace=wrap;html=1;snapToPoint=1;points=[[0.1,0],[0.2,0],[0.3,0],[0.4,0],[0.5,0],[0.6,0],[0.7,0],[0.8,0],[0.9,0],[0,0.1],[0,0.3],[0,0.5],[0,0.7],[0,0.9],[0.1,1],[0.2,1],[0.3,1],[0.4,1],[0.5,1],[0.6,1],[0.7,1],[0.8,1],[0.9,1],[1,0.1],[1,0.3],[1,0.5],[1,0.7],[1,0.9]];" parent="1" vertex="1">
          <mxGeometry x="-330" y="-710" width="150" height="30" as="geometry" />
        </mxCell>
        <mxCell id="YEbua0Xe0tTHwc7vpoXJ-6" value="abi:Error" style="rounded=0;whiteSpace=wrap;html=1;snapToPoint=1;points=[[0.1,0],[0.2,0],[0.3,0],[0.4,0],[0.5,0],[0.6,0],[0.7,0],[0.8,0],[0.9,0],[0,0.1],[0,0.3],[0,0.5],[0,0.7],[0,0.9],[0.1,1],[0.2,1],[0.3,1],[0.4,1],[0.5,1],[0.6,1],[0.7,1],[0.8,1],[0.9,1],[1,0.1],[1,0.3],[1,0.5],[1,0.7],[1,0.9]];fillColor=#ffe6cc;strokeColor=#d79b00;" parent="1" vertex="1">
          <mxGeometry x="-330" y="-740" width="150" height="30" as="geometry" />
        </mxCell>
        <mxCell id="YEbua0Xe0tTHwc7vpoXJ-7" value="" style="endArrow=classic;html=1;exitX=1;exitY=0.9;exitDx=0;exitDy=0;endSize=8;arcSize=0;rounded=0;entryX=0;entryY=0.5;entryDx=0;entryDy=0;" parent="1" source="YEbua0Xe0tTHwc7vpoXJ-6" target="rs8FluNcS8zjpksZ3zof-5" edge="1">
          <mxGeometry width="50" height="50" relative="1" as="geometry">
            <mxPoint x="-221" y="-608" as="sourcePoint" />
            <mxPoint x="-343" y="-670" as="targetPoint" />
            <Array as="points" />
          </mxGeometry>
        </mxCell>
        <mxCell id="YEbua0Xe0tTHwc7vpoXJ-8" value="&lt;div&gt;abi:hasErrorInput&lt;br&gt;&lt;/div&gt;" style="text;html=1;align=center;verticalAlign=middle;resizable=0;points=[];labelBackgroundColor=#ffffff;" parent="YEbua0Xe0tTHwc7vpoXJ-7" vertex="1" connectable="0">
          <mxGeometry x="-0.1269" relative="1" as="geometry">
            <mxPoint x="-9" as="offset" />
          </mxGeometry>
        </mxCell>
        <mxCell id="YEbua0Xe0tTHwc7vpoXJ-10" value="abi:name: string&lt;br&gt;abi:type: string&lt;br&gt;abi:internalType: string" style="rounded=0;whiteSpace=wrap;html=1;snapToPoint=1;points=[[0.1,0],[0.2,0],[0.3,0],[0.4,0],[0.5,0],[0.6,0],[0.7,0],[0.8,0],[0.9,0],[0,0.1],[0,0.3],[0,0.5],[0,0.7],[0,0.9],[0.1,1],[0.2,1],[0.3,1],[0.4,1],[0.5,1],[0.6,1],[0.7,1],[0.8,1],[0.9,1],[1,0.1],[1,0.3],[1,0.5],[1,0.7],[1,0.9]];" parent="1" vertex="1">
          <mxGeometry x="-166" y="-960" width="210" height="60" as="geometry" />
        </mxCell>
        <mxCell id="YEbua0Xe0tTHwc7vpoXJ-11" value="abi:Component" style="rounded=0;whiteSpace=wrap;html=1;snapToPoint=1;points=[[0.1,0],[0.2,0],[0.3,0],[0.4,0],[0.5,0],[0.6,0],[0.7,0],[0.8,0],[0.9,0],[0,0.1],[0,0.3],[0,0.5],[0,0.7],[0,0.9],[0.1,1],[0.2,1],[0.3,1],[0.4,1],[0.5,1],[0.6,1],[0.7,1],[0.8,1],[0.9,1],[1,0.1],[1,0.3],[1,0.5],[1,0.7],[1,0.9]];fillColor=#ffe6cc;strokeColor=#d79b00;" parent="1" vertex="1">
          <mxGeometry x="-166" y="-990" width="210" height="30" as="geometry" />
        </mxCell>
        <mxCell id="YEbua0Xe0tTHwc7vpoXJ-16" value="" style="endArrow=classic;html=1;exitX=0.9;exitY=0;exitDx=0;exitDy=0;endSize=8;arcSize=0;rounded=0;entryX=0.9;entryY=1;entryDx=0;entryDy=0;" parent="1" source="cJj3Txq9HCWcAZoRYjCn-10" target="YEbua0Xe0tTHwc7vpoXJ-10" edge="1">
          <mxGeometry width="50" height="50" relative="1" as="geometry">
            <mxPoint x="-10" y="-830" as="sourcePoint" />
            <mxPoint x="-488" y="-470" as="targetPoint" />
            <Array as="points" />
          </mxGeometry>
        </mxCell>
        <mxCell id="YEbua0Xe0tTHwc7vpoXJ-17" value="&lt;div&gt;abi:hasComponent&lt;br&gt;&lt;/div&gt;" style="text;html=1;align=center;verticalAlign=middle;resizable=0;points=[];labelBackgroundColor=#ffffff;" parent="YEbua0Xe0tTHwc7vpoXJ-16" vertex="1" connectable="0">
          <mxGeometry x="-0.1269" relative="1" as="geometry">
            <mxPoint as="offset" />
          </mxGeometry>
        </mxCell>
        <mxCell id="YEbua0Xe0tTHwc7vpoXJ-20" value="" style="endArrow=classic;html=1;exitX=0.2;exitY=1;exitDx=0;exitDy=0;endSize=8;arcSize=0;rounded=0;entryX=0;entryY=0.5;entryDx=0;entryDy=0;" parent="1" source="YEbua0Xe0tTHwc7vpoXJ-10" target="YEbua0Xe0tTHwc7vpoXJ-10" edge="1">
          <mxGeometry width="50" height="50" relative="1" as="geometry">
            <mxPoint x="-186" y="-865" as="sourcePoint" />
            <mxPoint x="-336" y="-985" as="targetPoint" />
            <Array as="points">
              <mxPoint x="-124" y="-870" />
              <mxPoint x="-196" y="-870" />
              <mxPoint x="-196" y="-930" />
            </Array>
          </mxGeometry>
        </mxCell>
        <mxCell id="YEbua0Xe0tTHwc7vpoXJ-21" value="&lt;div&gt;abi:hasSubComponent&lt;br&gt;&lt;/div&gt;" style="text;html=1;align=center;verticalAlign=middle;resizable=0;points=[];labelBackgroundColor=#ffffff;" parent="YEbua0Xe0tTHwc7vpoXJ-20" vertex="1" connectable="0">
          <mxGeometry x="-0.1269" relative="1" as="geometry">
            <mxPoint x="-30" as="offset" />
          </mxGeometry>
        </mxCell>
        <mxCell id="XDi0Bp43TBWCdVa-9cTi-1" value="" style="endArrow=block;html=1;fontColor=#000099;endFill=0;entryX=1;entryY=0.5;entryDx=0;entryDy=0;endSize=8;arcSize=0;rounded=0;exitX=0.5;exitY=0;exitDx=0;exitDy=0;" parent="1" source="cJj3Txq9HCWcAZoRYjCn-8" target="cJj3Txq9HCWcAZoRYjCn-10" edge="1">
          <mxGeometry width="50" height="50" relative="1" as="geometry">
            <mxPoint x="380" y="-707.5" as="sourcePoint" />
            <mxPoint x="342" y="-528.5" as="targetPoint" />
            <Array as="points">
              <mxPoint x="272" y="-825" />
            </Array>
          </mxGeometry>
        </mxCell>
        <mxCell id="XDi0Bp43TBWCdVa-9cTi-2" value="" style="endArrow=block;html=1;fontColor=#000099;endFill=0;entryX=0;entryY=0.1;entryDx=0;entryDy=0;endSize=8;arcSize=0;rounded=0;exitX=0.3;exitY=0;exitDx=0;exitDy=0;" parent="1" source="cJj3Txq9HCWcAZoRYjCn-43" target="cJj3Txq9HCWcAZoRYjCn-9" edge="1">
          <mxGeometry width="50" height="50" relative="1" as="geometry">
            <mxPoint x="33" y="-345" as="sourcePoint" />
            <mxPoint x="-394" y="-699" as="targetPoint" />
            <Array as="points">
              <mxPoint x="-392" y="-803" />
            </Array>
          </mxGeometry>
        </mxCell>
        <mxCell id="rs8FluNcS8zjpksZ3zof-5" value="abi:InputParameter" style="rounded=0;whiteSpace=wrap;html=1;snapToPoint=1;points=[[0.1,0],[0.2,0],[0.3,0],[0.4,0],[0.5,0],[0.6,0],[0.7,0],[0.8,0],[0.9,0],[0,0.1],[0,0.3],[0,0.5],[0,0.7],[0,0.9],[0.1,1],[0.2,1],[0.3,1],[0.4,1],[0.5,1],[0.6,1],[0.7,1],[0.8,1],[0.9,1],[1,0.1],[1,0.3],[1,0.5],[1,0.7],[1,0.9]];fillColor=#ffe6cc;strokeColor=#d79b00;" parent="1" vertex="1">
          <mxGeometry x="56" y="-727" width="140" height="30" as="geometry" />
        </mxCell>
        <mxCell id="rs8FluNcS8zjpksZ3zof-6" value="" style="endArrow=block;html=1;fontColor=#000099;endFill=0;entryX=1;entryY=0.3;entryDx=0;entryDy=0;endSize=8;arcSize=0;rounded=0;exitX=0.6;exitY=0;exitDx=0;exitDy=0;" parent="1" source="rs8FluNcS8zjpksZ3zof-5" target="cJj3Txq9HCWcAZoRYjCn-9" edge="1">
          <mxGeometry width="50" height="50" relative="1" as="geometry">
            <mxPoint x="282" y="-730" as="sourcePoint" />
            <mxPoint x="54" y="-815" as="targetPoint" />
            <Array as="points">
              <mxPoint x="140" y="-790" />
            </Array>
          </mxGeometry>
        </mxCell>
        <mxCell id="rs8FluNcS8zjpksZ3zof-11" value="" style="endArrow=none;html=1;fontColor=#000099;exitX=0;exitY=0.5;exitDx=0;exitDy=0;endFill=0;dashed=1;endSize=8;arcSize=0;startArrow=none;startFill=0;startSize=8;rounded=0;" parent="1" source="CwrkoWr39z1SSpxz46T6-1" edge="1">
          <mxGeometry width="50" height="50" relative="1" as="geometry">
            <mxPoint x="378" y="-512" as="sourcePoint" />
            <mxPoint x="318" y="-512" as="targetPoint" />
            <Array as="points">
              <mxPoint x="318" y="-512" />
            </Array>
          </mxGeometry>
        </mxCell>
        <mxCell id="rs8FluNcS8zjpksZ3zof-15" value="" style="endArrow=open;html=1;fontColor=#000099;exitX=0;exitY=0.5;exitDx=0;exitDy=0;endFill=0;dashed=1;entryX=0.3;entryY=1;entryDx=0;entryDy=0;endSize=8;arcSize=0;startArrow=none;startFill=0;startSize=8;rounded=0;" parent="1" source="CwrkoWr39z1SSpxz46T6-6" edge="1">
          <mxGeometry width="50" height="50" relative="1" as="geometry">
            <mxPoint x="378" y="-392" as="sourcePoint" />
            <mxPoint x="317.9000000000001" y="-557" as="targetPoint" />
            <Array as="points">
              <mxPoint x="318" y="-392" />
            </Array>
          </mxGeometry>
        </mxCell>
        <mxCell id="rs8FluNcS8zjpksZ3zof-16" value="" style="endArrow=none;html=1;fontColor=#000099;exitX=0;exitY=0.5;exitDx=0;exitDy=0;endFill=0;dashed=1;endSize=8;arcSize=0;startArrow=none;startFill=0;startSize=8;rounded=0;" parent="1" source="CwrkoWr39z1SSpxz46T6-2" edge="1">
          <mxGeometry width="50" height="50" relative="1" as="geometry">
            <mxPoint x="378" y="-472" as="sourcePoint" />
            <mxPoint x="318" y="-474" as="targetPoint" />
            <Array as="points">
              <mxPoint x="318" y="-472" />
            </Array>
          </mxGeometry>
        </mxCell>
        <mxCell id="rs8FluNcS8zjpksZ3zof-17" value="" style="endArrow=none;html=1;fontColor=#000099;exitX=0;exitY=0.5;exitDx=0;exitDy=0;endFill=0;dashed=1;endSize=8;arcSize=0;startArrow=none;startFill=0;startSize=8;rounded=0;" parent="1" source="CwrkoWr39z1SSpxz46T6-5" edge="1">
          <mxGeometry width="50" height="50" relative="1" as="geometry">
            <mxPoint x="378" y="-432" as="sourcePoint" />
            <mxPoint x="318" y="-434" as="targetPoint" />
            <Array as="points">
              <mxPoint x="318" y="-432" />
            </Array>
          </mxGeometry>
        </mxCell>
        <mxCell id="CwrkoWr39z1SSpxz46T6-1" value="&lt;u&gt;abi:Payable&lt;/u&gt;" style="rounded=0;whiteSpace=wrap;html=1;snapToPoint=1;points=[[0.1,0],[0.2,0],[0.3,0],[0.4,0],[0.5,0],[0.6,0],[0.7,0],[0.8,0],[0.9,0],[0,0.1],[0,0.3],[0,0.5],[0,0.7],[0,0.9],[0.1,1],[0.2,1],[0.3,1],[0.4,1],[0.5,1],[0.6,1],[0.7,1],[0.8,1],[0.9,1],[1,0.1],[1,0.3],[1,0.5],[1,0.7],[1,0.9]];" parent="1" vertex="1">
          <mxGeometry x="345" y="-527" width="100" height="30" as="geometry" />
        </mxCell>
        <mxCell id="CwrkoWr39z1SSpxz46T6-2" value="&lt;u&gt;abi:NonPayable&lt;/u&gt;" style="rounded=0;whiteSpace=wrap;html=1;snapToPoint=1;points=[[0.1,0],[0.2,0],[0.3,0],[0.4,0],[0.5,0],[0.6,0],[0.7,0],[0.8,0],[0.9,0],[0,0.1],[0,0.3],[0,0.5],[0,0.7],[0,0.9],[0.1,1],[0.2,1],[0.3,1],[0.4,1],[0.5,1],[0.6,1],[0.7,1],[0.8,1],[0.9,1],[1,0.1],[1,0.3],[1,0.5],[1,0.7],[1,0.9]];" parent="1" vertex="1">
          <mxGeometry x="345" y="-487" width="100" height="30" as="geometry" />
        </mxCell>
        <mxCell id="CwrkoWr39z1SSpxz46T6-5" value="&lt;u&gt;abi:Pure&lt;/u&gt;" style="rounded=0;whiteSpace=wrap;html=1;snapToPoint=1;points=[[0.1,0],[0.2,0],[0.3,0],[0.4,0],[0.5,0],[0.6,0],[0.7,0],[0.8,0],[0.9,0],[0,0.1],[0,0.3],[0,0.5],[0,0.7],[0,0.9],[0.1,1],[0.2,1],[0.3,1],[0.4,1],[0.5,1],[0.6,1],[0.7,1],[0.8,1],[0.9,1],[1,0.1],[1,0.3],[1,0.5],[1,0.7],[1,0.9]];" parent="1" vertex="1">
          <mxGeometry x="345" y="-447" width="100" height="30" as="geometry" />
        </mxCell>
        <mxCell id="CwrkoWr39z1SSpxz46T6-6" value="&lt;u&gt;abi:View&lt;/u&gt;" style="rounded=0;whiteSpace=wrap;html=1;snapToPoint=1;points=[[0.1,0],[0.2,0],[0.3,0],[0.4,0],[0.5,0],[0.6,0],[0.7,0],[0.8,0],[0.9,0],[0,0.1],[0,0.3],[0,0.5],[0,0.7],[0,0.9],[0.1,1],[0.2,1],[0.3,1],[0.4,1],[0.5,1],[0.6,1],[0.7,1],[0.8,1],[0.9,1],[1,0.1],[1,0.3],[1,0.5],[1,0.7],[1,0.9]];" parent="1" vertex="1">
          <mxGeometry x="345" y="-407" width="100" height="30" as="geometry" />
        </mxCell>
        <mxCell id="K3kMfihwzBYSS2jkINS5-1" value="sol:SmartContract" style="rounded=0;whiteSpace=wrap;html=1;snapToPoint=1;points=[[0.1,0],[0.2,0],[0.3,0],[0.4,0],[0.5,0],[0.6,0],[0.7,0],[0.8,0],[0.9,0],[0,0.1],[0,0.3],[0,0.5],[0,0.7],[0,0.9],[0.1,1],[0.2,1],[0.3,1],[0.4,1],[0.5,1],[0.6,1],[0.7,1],[0.8,1],[0.9,1],[1,0.1],[1,0.3],[1,0.5],[1,0.7],[1,0.9]];fillColor=#ffe6cc;strokeColor=#d79b00;" parent="1" vertex="1">
          <mxGeometry x="-201" y="-494" width="210" height="30" as="geometry" />
        </mxCell>
        <mxCell id="K3kMfihwzBYSS2jkINS5-2" value="" style="endArrow=classic;html=1;endSize=8;arcSize=0;rounded=0;entryX=0.5;entryY=0;entryDx=0;entryDy=0;exitX=0.918;exitY=0.988;exitDx=0;exitDy=0;exitPerimeter=0;" parent="1" source="cJj3Txq9HCWcAZoRYjCn-3" target="K3kMfihwzBYSS2jkINS5-1" edge="1">
          <mxGeometry width="50" height="50" relative="1" as="geometry">
            <mxPoint x="-118" y="-544" as="sourcePoint" />
            <mxPoint x="-118" y="-494" as="targetPoint" />
            <Array as="points" />
          </mxGeometry>
        </mxCell>
        <mxCell id="K3kMfihwzBYSS2jkINS5-3" value="&lt;div&gt;abi:hasImplementation&lt;br&gt;&lt;/div&gt;" style="text;html=1;align=center;verticalAlign=middle;resizable=0;points=[];labelBackgroundColor=#ffffff;" parent="K3kMfihwzBYSS2jkINS5-2" vertex="1" connectable="0">
          <mxGeometry x="-0.1269" relative="1" as="geometry">
            <mxPoint as="offset" />
          </mxGeometry>
        </mxCell>
      </root>
    </mxGraphModel>
  </diagram>
</mxfile>
